<svg width="52" height="52" viewBox="0 0 52 52" fill="none" xmlns="http://www.w3.org/2000/svg">
<rect width="52" height="52" rx="10" fill="#9D5CDF"/>
<path d="M15.2308 15.5311C16.4105 14.1148 18.1693 13.2632 20.6053 13.2632C22.0851 13.2632 23.4589 13.6988 24.6092 14.4493C25.8968 15.2861 26.8897 16.5055 27.4481 17.936C27.5219 18.1411 27.6361 18.3294 27.7839 18.4896C27.9317 18.6499 28.1101 18.7789 28.3086 18.8691C28.5071 18.9592 28.7216 19.0087 28.9396 19.0145C29.1575 19.0204 29.3744 18.9825 29.5774 18.9031C29.7805 18.8237 29.9655 18.7044 30.1217 18.5523C30.2779 18.4002 30.402 18.2184 30.4867 18.0175C30.5714 17.8166 30.615 17.6008 30.6149 17.3828C30.6148 17.1648 30.571 16.949 30.4861 16.7482C30.0208 15.5582 29.3442 14.4622 28.4891 13.5128C29.0982 13.3485 29.7334 13.2653 30.3947 13.2632C32.8307 13.2632 34.5879 14.1148 35.7692 15.5311C36.9831 16.9881 37.7368 19.2249 37.7368 22.2368C37.7368 26.9733 36.9439 31.0229 35.73 33.8243C34.4492 36.7807 33.0102 37.7368 32.0263 37.7368C31.7816 37.7368 31.5776 37.6797 31.2742 37.1527C30.9054 36.5132 30.646 35.5864 30.3083 34.3464C30.0244 33.3038 29.6719 32.0084 29.0813 30.9821C28.4156 29.8269 27.2947 28.7632 25.5 28.7632C23.7053 28.7632 22.5844 29.8269 21.9187 30.9821C21.3281 32.01 20.9756 33.3038 20.6917 34.3464C20.354 35.5864 20.0946 36.5132 19.7258 37.1527C19.4224 37.6797 19.2184 37.7368 18.9737 37.7368C17.9898 37.7368 16.5508 36.7807 15.27 33.8243C14.0561 31.0229 13.2632 26.9717 13.2632 22.2368C13.2632 19.2249 14.0169 16.9881 15.2308 15.5311ZM25.5 11.1943C23.988 10.4088 22.3091 9.99914 20.6053 10C17.3307 10 14.6011 11.1878 12.7247 13.4426C10.8762 15.6567 10 18.7224 10 22.2368C10 27.2898 10.8386 31.8061 12.2761 35.1231C13.6466 38.2851 15.8786 41 18.9737 41C20.7684 41 21.8893 39.9362 22.555 38.7811C23.1652 37.7205 23.5225 36.3712 23.8113 35.3107C24.1344 34.1262 24.3889 33.2321 24.7478 32.6104C25.0513 32.0834 25.2553 32.0263 25.5 32.0263C25.7447 32.0263 25.9487 32.0834 26.2522 32.6104C26.6111 33.2321 26.8656 34.1278 27.1887 35.3107C27.4775 36.3712 27.8348 37.7189 28.445 38.7811C29.1107 39.9362 30.2316 41 32.0263 41C35.1214 41 37.3534 38.2851 38.7239 35.1231C40.1597 31.8061 41 27.2915 41 22.2368C41 18.7224 40.1222 15.6567 38.2753 13.4426C36.3989 11.1878 33.6709 10 30.3947 10C28.6326 10 26.9652 10.4307 25.5 11.1943Z" fill="white"/>
</svg>
